<svg xmlns="http://www.w3.org/2000/svg" viewBox="0 0 648.11 308"><defs><style>.cls-1,.cls-10{fill:#0a6572;}.cls-2{fill:#a9c9cb;}.cls-3{fill:#6fc1c7;}.cls-4{fill:#70c2c8;}.cls-5{fill:#6dc1c7;}.cls-6{fill:#71c2c8;}.cls-7{fill:#ebf6f7;}.cls-8{fill:#fcfdfd;}.cls-9{fill:#076370;}.cls-10,.cls-11,.cls-12,.cls-13,.cls-9{stroke:#fff;stroke-miterlimit:10;stroke-width:2px;}.cls-11{fill:#036370;}.cls-12{fill:#00616f;}.cls-13{fill:#006673;}</style></defs><title>Ресурс 4</title><g id="Слой_2" data-name="Слой 2"><g id="llll_Изображение" data-name="llll Изображение"><path class="cls-1" d="M344,41c-4.58-6.48-6.92-14.12-10.84-21C330,14.5,327.36,8.64,324.56,2.88A10.82,10.82,0,0,1,324,0h58c0,.33,0,.65,0,1,2.75,5.8,5.42,11.64,8.27,17.39,8.09,16.35,16.33,32.62,24.34,49,4.87,9.95,10.49,19.54,14.41,29.93l-1.73,2.7c-1.34-8-5.42-12.46-14.12-11-.54-1-1-2.08-1.64-3q-23.08-35.21-46.2-70.38c-2.74-4.18-3-4.14-5.66.11C354.37,24.06,350.46,33.32,344,41Z"/><path class="cls-1" d="M476.05,307c0,.33-.05.65-.05,1H450a7.93,7.93,0,0,0-.06-1Z"/><path class="cls-1" d="M532.05,307.22l-25.08,0L476.05,307H449.94a6.91,6.91,0,0,0-.91-.15c-1.59-1.36-3.5-.8-5.28-.8-19.46-.05-38.92-.12-58.39,0-3.87,0-4.64-.75-2.77-4.39,7.62-14.88,15-29.89,22.52-44.82,7.9-15.68,15.89-31.32,23.84-47,1.48-2.79,2.31-6.5,4.61-8.1s5.4,1.38,8.19,2.16c11.78,3.28,23.4,3,34.69-1.61,3.32-1.34,4.22-.22,5.5,2.38q19.47,39.35,39.12,78.59c3.63,7.27,7.39,14.47,11.1,21.7a1,1,0,0,0,.21.93Z"/><path class="cls-1" d="M477,.94l55.9.1C529.54,11,524,19.9,519.41,29.22c-12.06,24.21-24.44,48.26-36.5,72.47-1.82,3.64-3.3,4.82-7.46,3a44,44,0,0,0-18.92-3.52c-2,0-4,.51-5.87-.5-.11-2.7.77-5.2,1.61-7.7.43-1.25,1.07-2.54-.47-3.5-3.19-2-9.48.33-10.53,3.89-1.17,3.94-2.3,7.9-3.45,11.85-3.19,1-5-.18-6.15-3.32-.56-1.61-1-3.48-2.66-4.53-3.92-10.4-9.54-20-14.41-29.94-8-16.38-16.25-32.65-24.34-49C387.41,12.62,384.74,6.78,382,1Z"/><path class="cls-1" d="M348,160c16.72-.86,33.46-1.54,50.17-2.68,4.25-.29,6.22.4,6.95,5a50.64,50.64,0,0,0,19,32.25c2.72,2.18,3,4,.79,6.45-21,31.21-42.05,62.43-63.45,94.2L343.17,264c-2.94-4.15-4.46-9.2-8.12-12.9a7.24,7.24,0,0,0-1.43-4.13c-7.64-13.17-15.19-26.39-22.76-39.6,6.3-6.3,7.9-13.94,4.34-20.65-3-5.64-9.84-8-18.35-6.28-.64.13-1.28.3-1.92.46-.44-3.26-2.63-5.66-4.16-8.37-5.09-9-4.92-9.49,5.57-9.42,16.38.11,32.64-2,49-2.12A3.11,3.11,0,0,0,348,160Zm-10.76,62.24c11.4-.2,15.36-4.08,15.44-15.39,0-5.15,0-10.3,0-15.45,0-2-.24-4,2.68-4.44,2.54-.35,1.57-2.53,1.59-4,0-2.32-1.85-1.82-3.26-1.92-5.81-.43-11.67,1.1-17.5-.89-2.68-.91-5.57.18-7.94,2-5.25,4.08-6.86,13.88-3.36,20.63,3.09,6,7.58,7.45,15.66,4.89,2.84-.9,3.36.08,2.86,2.53a6.61,6.61,0,0,1-3.41,4.66,7.4,7.4,0,0,1-7.62.12c-3.64-2.1-5,.72-5.92,3-1.39,3.58,2.26,2.91,3.89,3.4C332.56,222,335,222,337.26,222.21ZM368.9,181h-5.49c-1.52,0-3.21-.14-3.15,2.11.05,1.51-.79,3.56,1.82,3.88,1.72.21,2.56,1.36,3.21,2.79,2.69,5.9,5.49,11.75,8.09,17.69,1.65,3.78.17,6.6-3.86,7.49-1.26.28-2.3.49-2.27,2,0,1.29-.47,2.76.79,3.72,2.37,1.8,9.47-.15,10.6-2.94,3.55-8.79,7-17.61,10.57-26.39.78-1.94,1.15-4.11,4-4.48,2.46-.32,1.48-2.59,1.48-4.09,0-1.94-1.61-1.77-2.93-1.78-2.83,0-5.66-.06-8.49,0-1.21,0-3-.51-3.14,1.44-.1,1.49-.85,3.14.92,4.52s.28,8.51-1.85,9.52c-.37.18-1.17.24-1.3,0-1.76-2.61-4-5.5-2.85-8.61,2.57-7,2.82-6.93-4.66-6.94Z"/><path class="cls-1" d="M530.92,150.93c6.5,0,13,0,19.49,0,1.39,0,3.15.49,3.5-1.76.3-1.93.05-3.33-1.89-4.6-9.36-6.15-9.33-6.24-4.18-16.29a43,43,0,0,1,2.52-4.29c5.9-8.88,5.91-8.88,15.27-4a8.42,8.42,0,0,0,.85.52c3.38,1.4,15.33-6.42,15.49-10.13.4-9.64.42-9.54,9.89-11,5-.78,9.94.36,14.9.76,2.62.22,3.45,2,3.48,4.57,0,3-1.37,6.81.7,8.65,3.52,3.14,8,5.25,12.28,7.47,1.82.94,3.43-.8,5-1.7,7.1-4.19,7.07-4.2,12.23,2.5a48.57,48.57,0,0,1,7.12,13.1c1.11,3.06.8,5.26-2.38,7.07-2.39,1.35-6.16,2-6.64,4.84a48.09,48.09,0,0,0-.15,13.92c.35,2.68,3.78,3.64,6.06,4.72,4.25,2,4.26,4.79,2.77,8.56a64.54,64.54,0,0,1-8.58,14.54c-2.29,3.12-4.93,3.82-7.57,1.56-5-4.28-9.36-3.39-13.87.52a7.52,7.52,0,0,1-2.65,1.37c-3.33,1-4.49,3.08-4.39,6.68.24,8.84-.17,9.22-9,9.54-4.65.17-9.32-.09-14-.35-3.57-.2-5.66-2.15-5-5.88,1.1-6.14-2.11-8.65-7-11.74-5.4-3.38-9.31-3.53-14.1,0-2.59,1.94-4.87,1.07-6.91-1.37a62.78,62.78,0,0,1-9.79-17.26c-.89-2.21-.25-3.88,1.77-5.09,1.86-1.1,3.65-2.35,5.58-3.31S554.4,161,554,158.8c-.5-2.5-2.4-1.9-3.93-1.9-11.33,0-22.65,0-34,0-1,0-2,0-3,0-2.45-.13-5.77.33-5.85-3.06-.08-3.85,3.48-2.7,5.74-2.75,6-.12,12,0,18,0Zm83,2.74A17.93,17.93,0,0,0,596.12,136c-9.53,0-17.72,8.29-17.71,17.92s8.3,17.67,18,17.71C605.9,171.69,614,163.43,613.94,153.67Z"/><path class="cls-1" d="M344,41c6.42-7.7,10.33-17,15.62-25.36,2.68-4.25,2.92-4.29,5.66-.11q23.08,35.21,46.2,70.38c.63.95,1.1,2,1.64,3-4.52-.13-4.69,2-3.38,5.65,3.2,8.77,6.12,17.65,9.15,26.48-2.2-1.84-3.05-.09-4.19,1.45a49.57,49.57,0,0,0-9.58,23.14c-.45,3.47-1.8,4.44-5.08,4.2-15-1.1-30-2.06-45.05-3.07a8.93,8.93,0,0,0-2.3-.78c-8-.39-16-.29-23.85-1.2-6-.69-12.21.15-18.07-1.9,7.87-4.26,14.12-9.92,16.41-19,.59-2.33,2-5.28-.51-6.81-3.55-2.14-7.82-1-11.77-.89-3,.1-2.31,3.24-3,5.06-3.4,8.61-10.11,11-17.14,6,5.55-9.6,10.61-19.51,17.23-28.48,4.14-.27,8.29-.81,12.42-.72,3.1.07,3.83-1.22,3.47-3.86a39.29,39.29,0,0,0-6.11-16.17,2.38,2.38,0,0,0,2.1-1c4-7.29,8.83-14.15,12.21-21.81C339.09,50.67,342.37,46.3,344,41ZM390.82,81.4c-.58-2.26,1.56-6.29-1.78-7.25a18.81,18.81,0,0,0-10.7.56c-2.94,1-1.39,4.52-1.53,7.1-.15,3,1.43,7.74-4.51,7.35-3.37-.23-5.8.6-5.14,4.57.58,3.49-2.65,9.23,4.76,9,2.7-.07,3.4,1,3.35,3.51-.14,6.16-.22,12.33,0,18.48.13,3.4-.59,6.89.85,10.21,3.8,8.78,11.43,11.3,22.54,8.28,5.74-1.56,2.56-5.56,3.11-8.43.63-3.35-2.2-3-4.34-3-4.57-.09-7-1.86-6.7-7a125.87,125.87,0,0,0,0-16.48c-.29-4.37,1-6.25,5.52-5.55,3.42.53,5-1,4.64-4.51a40.38,40.38,0,0,1,0-5.5c.09-2.48-.95-3.5-3.52-3.66C390.81,88.71,390.82,88.6,390.82,81.4Zm-33.87,34v-17c0-9.38,0-9.21-9.58-9.35-4.53-.06-6.24,1.56-6.17,6.12.2,11.81,0,23.63.09,35.44.08,12.9-1.84,11.12,11.41,11.42,3.23.07,4.42-.84,4.32-4.2C356.81,130.42,357,122.93,357,115.44Zm.85-38.21c0-8,0-8-7.78-8-8.77,0-8.77,0-8.77,7.34,0,8.42.05,8.48,7.64,8.48C357.79,85,357.79,85,357.8,77.23Z"/><path class="cls-1" d="M310.86,207.34c7.57,13.21,15.12,26.43,22.76,39.6a7.24,7.24,0,0,1,1.43,4.13c-6.35,11.4-14.21,21.81-21.35,32.7-2.17,3.31-4.49,6.53-6.54,9.92-1.75,2.91-3.09,3.11-4.85,0-7.45-13.07-15-26.08-22.47-39.13-8.22-14.36-16.74-28.55-24.36-43.25-.81-1.56-1.63-3.37-3.77-3.7,6.24-6.11,8.06-13.27,5.13-20.1-2.51-5.85-7.91-8.21-17.34-7.57-.82.06-1.64.06-2.46.09-2.26-3.86-4.61-7.67-6.76-11.59-1.43-2.62-2.89-5.19,2.29-5.66,2.61-.24,5.21-.87,7.87-.77,16.78.59,33.43-1.75,50.18-2.24,11.55-.34,23.11-1.37,34.69-2,6.28-.32,12.56-.74,18.85-.83,2.14,0,4.16-.08,3.86,3a3.11,3.11,0,0,1-2.68,1c-16.36.09-32.62,2.23-49,2.12-10.49-.07-10.66.42-5.57,9.42,1.53,2.71,3.72,5.11,4.16,8.37-6.81,3.67-9.49,10.32-7.43,18.45,1.59,6.24,6.44,9.65,13.73,9.86A21.45,21.45,0,0,0,310.86,207.34ZM277.76,185v-7.5c0-10.41,0-10.42-10.39-9.84-1.37.07-3.4-.52-3.29,1.85.09,1.72-1.36,4.27,1.82,4.85,2.23.41,2.34,2,2.34,3.75q0,9.75,0,19.5c0,1.92-.05,3.56-2.54,4.11-3,.66-1.52,3.24-1.59,5-.08,2,1.72,1.62,3,1.64q5.75.07,11.5,0c1.23,0,3,.46,3.06-1.54,0-1.69,1.14-4.34-1-4.9-3.39-.88-2.86-3.15-2.88-5.4C277.74,192.66,277.76,188.83,277.76,185Z"/><path class="cls-1" d="M336.09,55.2c-3.38,7.66-8.17,14.52-12.21,21.81a2.38,2.38,0,0,1-2.1,1c-12.1-13.9-37.11-11.56-46,6.67-7.22,14.79-7.42,29.69.19,44.3q5.7,10.93,18.17,14.27c5.79,1.54,11.13.22,16.66-.37,5.86,2,12.05,1.21,18.07,1.9,7.89.91,15.9.81,23.85,1.2a8.93,8.93,0,0,1,2.3.78c-6.5.1-12,4.31-19,3.36-17.52-2.39-35.3-1.91-52.88-4.07-5.4-.66-10.91-.64-16.34-.91-11.91-.57-23.79-1.51-35.68-2.13-3.48-.18-3.05-1.56-1.78-3.61,13.26-21.34,25.17-43.47,38.27-64.91,12.05-19.72,23.14-40,34.65-60.07,2.66-4.62,3.59-4.67,6.65-.09Q322.52,34.77,336.09,55.2Z"/><path class="cls-1" d="M443,122.94c4.93-.44,9.6-2.2,14.71-2.09,16.83.35,31.39,13.91,32.32,30.59,1,17.56-11.18,32.49-28.27,34.74-18.06,2.38-34.13-9.06-36.92-26.26,5.8-2.73,8.91-7.74,10.85-13.48C438.34,138.67,440.61,130.78,443,122.94Z"/><path class="cls-1" d="M343.17,264l18.29,31.19c21.4-31.77,42.42-63,63.45-94.2a16.42,16.42,0,0,0,4,8.93c-7.95,15.65-15.94,31.29-23.84,47-7.53,14.93-14.9,29.94-22.52,44.82-1.87,3.64-1.1,4.41,2.77,4.39,19.47-.12,38.93-.05,58.39,0,1.78,0,3.69-.56,5.28.8q-42.72.06-85.43.12H328.13c-5.87,0-5.95-.39-3.24-5.78C331.11,288.85,338,276.85,343.17,264Z"/><path class="cls-1" d="M582.53,79.21c-10.84,0-21.67.07-32.5,0a8.65,8.65,0,0,0-6.15,2.43c-14.26,12-28.7,23.77-43.12,35.58-1.49,1.22-3.27,3-5.14.76s-.14-4,1.59-5.41C510.45,101.67,523.67,90.78,537,80c2.28-1.84,2.8-3.37,2.59-6.58-.7-10.78-.59-21.63-.36-32.45.08-3.89,2.75-1.72,4.14-.77,7.28,5,14.47,10.11,21.68,15.19,2.32,1.63,4.66,3.22,6.94,4.89,6.79,5,13.45,4.84,20.26-.1q12.12-8.8,24.5-17.25c2.24-1.54,4.61-4.8,7.12-3.59,2.33,1.12.89,4.86.94,7.43.15,7.83.1,15.66,0,23.5,0,6.08-2.74,8.87-8.82,8.91C604.86,79.26,593.69,79.21,582.53,79.21Z"/><path class="cls-1" d="M581.91,286.17c-29.46-.08-54.27-25.5-53.75-55.45.08-4.66-1.27-7.54-4.9-10.45-8.56-6.84-16.67-14.26-24.95-21.45-.88-.76-1.66-1.65-2.55-2.39-1.68-1.42-2.91-3.22-1.45-5.16,1.77-2.34,3.64-.48,5.1.74,5,4.15,9.85,8.43,14.77,12.64,4.42,3.79,8.94,7.46,13.24,11.38,1.85,1.7,3.1,2,4.88,0,2.22-2.5,5.39-3.26,8.53-3.68,5.64-.74,9.08,1.4,10.84,6.75,1.65,5,2.81,10.27,4.67,15.24,1.77,4.74.45,7.89-4.07,9.53-3.41,1.23-3.23,2.83-1.62,5.49a47.52,47.52,0,0,0,12.13,13.07c2.06,1.58,3.22,1.8,4.44-.91,2.19-4.82,5.84-5.75,10.68-3.73,4,1.66,8.17,2.77,12.22,4.27,8.83,3.25,11,13.08,4.47,20.15C591.13,286,590.41,286.19,581.91,286.17Z"/><path class="cls-1" d="M582,18.12c11,0,22-.06,33,0,4.19,0,8.1.95,9.45,5.7,1,3.38.86,6.57-2.44,8.9-11.55,8.14-23,16.35-34.6,24.46a8.62,8.62,0,0,1-10.7-.06c-11.16-7.83-22.31-15.68-33.51-23.45-3.37-2.34-5-5.28-3.81-9.36,1.27-4.26,4.51-6.09,8.69-6.16,7.82-.14,15.65-.05,23.47-.06Z"/><path class="cls-1" d="M449.81,101.91l.75-1.18C450.91,101.5,450.39,101.72,449.81,101.91Z"/><path class="cls-1" d="M532.37,305.94a1,1,0,0,1-.21-.93,4.56,4.56,0,0,1,.41.6C532.6,305.68,532.44,305.83,532.37,305.94Z"/><path class="cls-1" d="M437.82,105.16l-4.22,14.5A87.09,87.09,0,0,1,427.28,100L429,97.3c1.65,1.06,2.1,2.93,2.66,4.54C432.78,105,434.63,106.16,437.82,105.16Z"/><path class="cls-1" d="M613.94,153.67c0,9.76-8,18-17.55,18-9.68,0-18-8.2-18-17.71S586.59,136,596.12,136A17.93,17.93,0,0,1,613.94,153.67Z"/><path class="cls-1" d="M294.77,127.29c-5.25-2.5-5.45-7.72-5.67-12.23-.34-7-.88-14.17.76-21.22,1.55-6.64,5.78-10.45,11.95-10.09,5.72.34,8.68,3.93,9.37,11.22a33,33,0,0,0,.82,3.85C305.38,107.78,300.32,117.69,294.77,127.29Z"/><path class="cls-1" d="M1,71c4,.07,8,.47,11.9.12,3.72-.33,5.13,1.43,5.76,4.56,2.45,12,4.87,24,7.35,36a39,39,0,0,0,1.47,4.23c2.82-3.92,2.63-8.35,3.67-12.3,2.34-9,4.2-18.09,6.07-27.18.78-3.78,2.3-5.53,6.6-5.37,9.38.36,9.46.08,11.72,9.29,2.86,11.72,5.59,23.46,8.66,36.36C67.32,110.39,67.5,104.52,69,99c1.89-7,3.28-14.22,4.46-21.41.81-5,2.87-6.94,8.16-6.54,6.94.53,6.72.07,5,7q-6.81,27.5-13.21,55.11c-2,8.8-7,11.78-15.87,9.19-2.09-.6-2.2-2.25-2.58-3.83Q51,122.09,47.05,105.65a20.5,20.5,0,0,0-2.93-7.18Q40.53,114,37,129.42c-.23,1-.32,2-.57,2.93-2.84,10.85-3.8,11.41-15.15,10.09-2.82-.32-3.26-2-3.81-4.31-4.94-20.63-10-41.22-15-61.83-.22-.9,0-2.08-1.39-2.3Z"/><path class="cls-1" d="M213.79,119.08c-4.17,0-8.33,0-12.5,0-1.25,0-2.66-.42-3.4,1.28-1.47,3.4,1.07,9.45,5,11.57,4.2,2.3,9.49,1.41,11.18-2.85,1.89-4.79,4.93-4.4,8.71-3.74,7.17,1.24,7.23,1.29,3.61,7.62A23.07,23.07,0,0,1,203,144.07a24.14,24.14,0,0,1-19.89-18c-2-9-1.91-17.92,2.84-26.2,5.17-9,13.77-13,24.53-11.46,8.16,1.15,16,9.27,18,18.64,2.58,12,2.58,12-9.67,12Zm-7.73-9h6.48c1.3,0,2.47-.38,2.15-2-.74-3.63-1.61-7.47-5.8-8.52-3.58-.9-7-.12-9.1,3.41-1.07,1.84-2.46,4.08-1.6,6,.94,2.15,3.54.71,5.38,1A14.77,14.77,0,0,0,206.06,110.06Z"/><path class="cls-1" d="M149.29,88.27c8.05-.73,14.48,2.67,18.52,10.54,1,1.9,1,3-1.38,3.61-3.88.93-7.4,3.65-11.25-1.22-2.57-3.25-7.45-2.12-11.36-1.29a3.83,3.83,0,0,0-2.7,3.84c0,1.89,1.51,2.75,3.17,3.39,4.14,1.58,8.57,1,12.82,1.52,7.3.84,12.89,6.37,14,14a18.33,18.33,0,0,1-10.37,18.83c-8.69,4-17.41,3.49-26-.59a12,12,0,0,1-3.58-2.66c-2.43-2.67-6.22-5.85-4.3-9.23,1.75-3.1,6.78-1.39,10.3-2.24,1.55-.38,1.88,1.62,2.73,2.56,3.59,4,10.59,5.08,15.07,2.23,2-1.28,3.15-3.05,2.44-5.45-.64-2.17-2.28-3-4.56-3.1-3.8-.24-7.6-.73-11.38-1.31-6.94-1.08-12.09-5.55-13.2-11.25-1.59-8.19,1.19-15.33,7.49-19.17C139.7,88.93,142.42,88.28,149.29,88.27Z"/><path class="cls-1" d="M443,122.94c-2.42,7.84-4.69,15.73-7.31,23.5-1.94,5.74-5.05,10.75-10.85,13.48-1.49.05-3,.08-4.46.14-9.49.42-10.18-.35-9.68-9.66.14-2.64,1-3.7,3.61-3.06a14.19,14.19,0,0,0,5.91.26c4.62-.81,6.42-3.78,4.92-8.25-2.05-6.1-4.15-12.17-6.24-18.26-3-8.83-5.95-17.71-9.15-26.48-1.31-3.62-1.14-5.78,3.38-5.65,8.7-1.42,12.78,3.05,14.12,11a87.09,87.09,0,0,0,6.32,19.66l4.22-14.5c1.15-4,2.28-7.91,3.45-11.85,1.05-3.56,7.34-5.88,10.53-3.89,1.54,1,.9,2.25.47,3.5-.84,2.5-1.72,5-1.61,7.7l-.1.11-.75,1.18Z"/><path class="cls-1" d="M115.14,116.39c0,7.31-.12,14.62.06,21.93.08,3-.83,4.08-3.91,4.2-11.24.43-11.23.53-11.23-10.79,0-12.47.09-24.93-.07-37.39,0-3.47,1.11-4.71,4.59-4.65,12,.2,10.52-1.06,10.56,10.24C115.16,105.42,115.14,110.9,115.14,116.39Z"/><path class="cls-1" d="M100,76.91c0-1.32.1-2.65,0-4-.25-2.73.78-3.72,3.64-3.83,11.72-.46,13.46,1.44,11.63,13.3-.19,1.22-.4,2.59-1.74,2.64-4,.15-7.91.13-11.86,0-1.42-.06-1.64-1.42-1.63-2.65C100.05,80.55,100.05,78.73,100,76.91Z"/><path class="cls-1" d="M310.81,142.93c-5.53.59-10.87,1.91-16.66.37Q281.65,140,276,129c-7.61-14.61-7.41-29.51-.19-44.3,8.88-18.23,33.89-20.57,46-6.67a39.29,39.29,0,0,1,6.11,16.17c.36,2.64-.37,3.93-3.47,3.86-4.13-.09-8.28.45-12.42.73a33,33,0,0,1-.82-3.85c-.69-7.29-3.65-10.88-9.37-11.22-6.17-.36-10.4,3.45-11.95,10.09-1.64,7-1.1,14.17-.76,21.22.22,4.51.42,9.73,5.67,12.23,7,5,13.74,2.63,17.14-6,.72-1.82,0-5,3-5.06,3.95-.14,8.22-1.25,11.77.89,2.55,1.53,1.1,4.48.51,6.81C324.93,133,318.68,138.67,310.81,142.93Z"/><path class="cls-1" d="M390.82,81.4c0,7.2,0,7.31,6.53,7.73,2.57.16,3.61,1.18,3.52,3.66a40.38,40.38,0,0,0,0,5.5c.33,3.52-1.22,5-4.64,4.51-4.5-.7-5.81,1.18-5.52,5.55a125.87,125.87,0,0,1,0,16.48c-.34,5.12,2.13,6.89,6.7,7,2.14,0,5-.34,4.34,3-.55,2.87,2.63,6.87-3.11,8.43-11.11,3-18.74.5-22.54-8.28-1.44-3.32-.72-6.81-.85-10.21-.24-6.15-.16-12.32,0-18.48.05-2.51-.65-3.58-3.35-3.51-7.41.19-4.18-5.55-4.76-9-.66-4,1.77-4.8,5.14-4.57,5.94.39,4.36-4.35,4.51-7.35.14-2.58-1.41-6.08,1.53-7.1a18.81,18.81,0,0,1,10.7-.56C392.38,75.11,390.24,79.14,390.82,81.4Z"/><path class="cls-1" d="M357,115.44c0,7.49-.15,15,.06,22.46.1,3.36-1.09,4.27-4.32,4.2-13.25-.3-11.33,1.48-11.41-11.42-.08-11.81.11-23.63-.09-35.44-.07-4.56,1.64-6.18,6.17-6.12,9.58.14,9.59,0,9.58,9.35Q357,107,357,115.44Z"/><path class="cls-1" d="M357.8,77.23c0,7.78,0,7.78-8.91,7.78-7.59,0-7.65-.06-7.64-8.48,0-7.34,0-7.34,8.77-7.34C357.8,69.2,357.8,69.2,357.8,77.23Z"/><path class="cls-1" d="M206.06,110.06a14.77,14.77,0,0,1-2.49,0c-1.84-.31-4.44,1.13-5.38-1-.86-2,.53-4.19,1.6-6,2.06-3.53,5.52-4.31,9.1-3.41,4.19,1,5.06,4.89,5.8,8.52.32,1.58-.85,2-2.15,2Z"/><path class="cls-1" d="M94.14,191.74c-1.81-.67-4.76,1-4.92-1.87-.14-2.45,2.14-4.25,4.66-4.29,2.73-.05,5.3,1.82,5.23,4.36C99,193.38,95.65,190.66,94.14,191.74Z"/><path class="cls-1" d="M247.15,199.15c-1.17,1.83-2.46,3.84-5,3.14s-3.86-2.93-4.22-5.56c-.43-3.16-.35-6.24,2-8.77A15.32,15.32,0,0,1,247.15,199.15Z"/><path class="cls-1" d="M247.15,199.15A15.32,15.32,0,0,0,240,188c3.88-3.78,6-.65,7.6,2.29S249.39,196.29,247.15,199.15Z"/><path class="cls-1" d="M343.83,194.27c.11,4.12-3.19,9.07-6,8.54-4.16-.78-5.24-4.3-5.57-7.9-.4-4.32,2.62-8.79,5.64-8.81C340.73,186.09,343.73,190.19,343.83,194.27Z"/><path class="cls-1" d="M306.22,199.29c-1.38,1.53-2.3,4-5,3.28s-3.83-2.87-4.45-5.43a10.12,10.12,0,0,1,2-9.26C302.24,191.05,303.34,195.75,306.22,199.29Z"/><path class="cls-1" d="M306.22,199.29c-2.88-3.54-4-8.24-7.42-11.41,3.73-2.54,6.41-1.72,8.16,2.6C308.18,193.5,308.44,196.52,306.22,199.29Z"/><path class="cls-1" d="M181.55,201.29c-1.54-.09-1.43-1.57-1.44-2.74,0-2.82,0-5.65,0-8.48-.14-9-3.81-12.1-12.62-10.07-2.94.68-4.09.61-4.15-2.92-.17-9.87-.33-9.9-10.42-9.57-1.43.05-3.82-.91-3.7,1.84.08,1.9-1.7,5,2.4,5.22,1.83.09,2,1.38,2,2.81,0,7.15,0,14.31,0,21.46,0,1.58-.49,2.52-2.21,2.62-3.76.22-2,3.13-2.22,4.92-.29,2.72,1.94,2.07,3.47,2.13,1.83.06,3.66,0,5.49,0a47.65,47.65,0,0,0,5.48-.05c1.39-.16,3.89,1.16,3.79-1.62-.07-1.86,2-5-2.1-5.42-1.48-.17-1.88-1.1-1.87-2.42,0-2.82.06-5.65,0-8.48s2-3.42,3.88-3.7c2.46-.37,2.95,1.67,3,3.61.09,2.82.05,5.65.05,8.48,0,9.68,0,9.74,9.51,9.54,1.51,0,4.18,1.33,4.3-1.63C184.24,204.83,186,201.53,181.55,201.29Z"/><path class="cls-1" d="M222.43,201.65c-3-.52-2.77-2.22-2.77-4.25,0-3,0-6-.17-9-.53-7.17-3.86-10.24-10.84-8.74-5.17,1.1-10.24.34-15.3.88-1.62.18-4.52-1.65-4.66,1.8-.09,2.07-1.58,5.34,2.8,5.37,1.19,0,1.51,1.1,1.51,2.19,0,3,0,6,0,9,0,1.3-.3,2.44-1.82,2.46-4.18.07-2.4,3.21-2.52,5.12-.2,3.2,2.47,1.93,4,2,3.49.17,7,.14,10.49,0,1.45-.05,3.83.91,3.74-1.82-.06-1.94,1.64-5-2.4-5.29-1.53-.1-1.81-1.18-1.8-2.47,0-2.83,0-5.66,0-8.49.05-2.6,2.05-3.38,4-3.61,2.51-.28,2.95,1.79,3,3.66.14,2.66,0,5.33,0,8,.07,10.57.07,10.57,10.74,10.07h.5c1.31,0,3,.18,2.78-1.83C223.65,204.94,225.21,202.14,222.43,201.65Z"/><path class="cls-1" d="M100.34,180.37C94,178.48,87.61,178.72,82.75,184s-5.31,11.45-2.67,17.73c2.71,6.46,8.5,7.9,15.7,7.87a16,16,0,0,0,8.34-1.93c2-1.09,5.31-2.9,4.21-4.6-1.39-2.15-4.89-3.2-8-1.87a23.26,23.26,0,0,0-2.14,1.28c-3.18,1.78-5.75.69-8-1.76-.79-.86-1.58-1.88-1.17-3.12.5-1.5,1.94-1,3-1,4.83-.06,9.66,0,14.5,0,1.4,0,2.89.47,3-2C109.85,188.5,106.05,182.05,100.34,180.37Zm-6.2,11.37c-1.81-.67-4.76,1-4.92-1.87-.14-2.45,2.14-4.25,4.66-4.29,2.73-.05,5.3,1.82,5.23,4.36C99,193.38,95.65,190.66,94.14,191.74Z"/><path class="cls-1" d="M143.08,199.45c-3.33-1.89-5.71-2.15-8.44,1.11-2.32,2.77-5.34,2.28-7.81-.34-2.72-2.87-2.7-8.58,0-11.49,2.46-2.61,5.59-3.14,7.79-.33,2.47,3.14,5.67,4.2,8.62,2.85s.69-5.05,1.23-7.65c.59-2.83-1-3.51-3.43-3.12a22,22,0,0,1-9-.7c-8.93-2.2-16.75,4-17.31,13.15-.65,10.57,5.32,16.6,16.42,16.61,5.06.12,9.56-1.08,12.75-5.41C145.31,202.24,145.7,200.93,143.08,199.45Z"/><path class="cls-1" d="M239.5,180c-.82.06-1.64.06-2.46.09-8.39,4.57-11.36,11.68-8.5,20.37,2.13,6.46,8.74,10.07,17,9a37.45,37.45,0,0,0,6.17-1.82c6.24-6.11,8.06-13.27,5.13-20.1C254.33,181.67,248.93,179.31,239.5,180Zm7.65,19.2c-1.17,1.83-2.46,3.84-5,3.14s-3.86-2.93-4.22-5.56c-.43-3.16-.35-6.24,2-8.77,3.88-3.78,6-.65,7.6,2.29S249.39,196.29,247.15,199.15Z"/><path class="cls-1" d="M353.72,181c-5.81-.43-11.67,1.1-17.5-.89-2.68-.91-5.57.18-7.94,2-5.25,4.08-6.86,13.88-3.36,20.63,3.09,6,7.58,7.45,15.66,4.89,2.84-.9,3.36.08,2.86,2.53a6.61,6.61,0,0,1-3.41,4.66,7.4,7.4,0,0,1-7.62.12c-3.64-2.1-5,.72-5.92,3-1.39,3.58,2.26,2.91,3.89,3.4,2.18.67,4.58.61,6.88.86,11.4-.2,15.36-4.08,15.44-15.39,0-5.15,0-10.3,0-15.45,0-2-.24-4,2.68-4.44,2.54-.35,1.57-2.53,1.59-4C357,180.6,355.13,181.1,353.72,181Zm-15.93,21.81c-4.16-.78-5.24-4.3-5.57-7.9-.4-4.32,2.62-8.79,5.64-8.81,2.87,0,5.87,4.09,6,8.17S340.64,203.34,337.79,202.81Z"/><path class="cls-1" d="M394.7,182.79c0-1.94-1.61-1.77-2.93-1.78-2.83,0-5.66-.06-8.49,0-1.21,0-3-.51-3.14,1.44-.1,1.49-.85,3.14.92,4.52s.28,8.51-1.85,9.52c-.37.18-1.17.24-1.3,0-1.76-2.61-4-5.5-2.85-8.61,2.57-7,2.82-6.93-4.66-6.94h-7c-1.52,0-3.21-.14-3.15,2.11.05,1.51-.79,3.56,1.82,3.88,1.72.21,2.56,1.36,3.21,2.79,2.69,5.9,5.49,11.75,8.09,17.69,1.65,3.78.17,6.6-3.86,7.49-1.26.28-2.3.49-2.27,2,0,1.29-.47,2.76.79,3.72,2.37,1.8,9.47-.15,10.6-2.94,3.55-8.79,7-17.61,10.57-26.39.78-1.94,1.15-4.11,4-4.48C395.68,186.56,394.7,184.29,394.7,182.79Z"/><path class="cls-1" d="M296.85,180.41c-.64.13-1.28.3-1.92.46-6.81,3.67-9.49,10.32-7.43,18.45,1.59,6.24,6.44,9.65,13.73,9.86a21.45,21.45,0,0,0,9.63-1.84c6.3-6.3,7.9-13.94,4.34-20.65C312.2,181.05,305.36,178.7,296.85,180.41Zm9.37,18.88c-1.38,1.53-2.3,4-5,3.28s-3.83-2.87-4.45-5.43a10.12,10.12,0,0,1,2-9.26c3.73-2.54,6.41-1.72,8.16,2.6C308.18,193.5,308.44,196.52,306.22,199.29Z"/><path class="cls-1" d="M280.65,201.9c-3.39-.88-2.86-3.15-2.88-5.4,0-3.84,0-7.67,0-11.5v-7.5c0-10.41,0-10.42-10.39-9.84-1.37.07-3.4-.52-3.29,1.85.09,1.72-1.36,4.27,1.82,4.85,2.23.41,2.34,2,2.34,3.75q0,9.75,0,19.5c0,1.92-.05,3.56-2.54,4.11-3,.66-1.52,3.24-1.59,5-.08,2,1.72,1.62,3,1.64q5.75.07,11.5,0c1.23,0,3,.46,3.06-1.54C281.69,205.11,282.79,202.46,280.65,201.9Z"/><path class="cls-1" d="M70.6,180.45c-2.73.14-2.72-1.74-2.68-3.68,0-2.29,0-4.57,0-7-7.43,1.34-8.79,8.12-13.08,11.86-.89.77-1.48,4.91.78,5.63,3.18,1,2.5,3,2.56,5a68.18,68.18,0,0,1,0,8c-.77,8.34,3.33,10.67,12.7,8.8,2.68-.53,2.19-2.46,2.23-4.22s0-2.91-2.42-2.53S68,200.81,68,199c0-2.65,0-5.31,0-8-.07-2.09.29-3.66,2.88-3.51s2.33-1.72,2.32-3.38S73.55,180.29,70.6,180.45Z"/><path class="cls-1" d="M181.55,201.29c-1.54-.09-1.43-1.57-1.44-2.74,0-2.82,0-5.65,0-8.48-.14-9-3.81-12.1-12.62-10.07-2.94.68-4.09.61-4.15-2.92-.17-9.87-.33-9.9-10.42-9.57-1.43.05-3.82-.91-3.7,1.84.08,1.9-1.7,5,2.4,5.22,1.83.09,2,1.38,2,2.81,0,7.15,0,14.31,0,21.46,0,1.58-.49,2.52-2.21,2.62-3.76.22-2,3.13-2.22,4.92-.29,2.72,1.94,2.07,3.47,2.13,1.83.06,3.66,0,5.49,0a47.65,47.65,0,0,0,5.48-.05c1.39-.16,3.89,1.16,3.79-1.62-.07-1.86,2-5-2.1-5.42-1.48-.17-1.88-1.1-1.87-2.42,0-2.82.06-5.65,0-8.48s2-3.42,3.88-3.7c2.46-.37,2.95,1.67,3,3.61.09,2.82.05,5.65.05,8.48,0,9.68,0,9.74,9.51,9.54,1.51,0,4.18,1.33,4.3-1.63C184.24,204.83,186,201.53,181.55,201.29Z"/><path class="cls-1" d="M222.43,201.65c-3-.52-2.77-2.22-2.77-4.25,0-3,0-6-.17-9-.53-7.17-3.86-10.24-10.84-8.74-5.17,1.1-10.24.34-15.3.88-1.62.18-4.52-1.65-4.66,1.8-.09,2.07-1.58,5.34,2.8,5.37,1.19,0,1.51,1.1,1.51,2.19,0,3,0,6,0,9,0,1.3-.3,2.44-1.82,2.46-4.18.07-2.4,3.21-2.52,5.12-.2,3.2,2.47,1.93,4,2,3.49.17,7,.14,10.49,0,1.45-.05,3.83.91,3.74-1.82-.06-1.94,1.64-5-2.4-5.29-1.53-.1-1.81-1.18-1.8-2.47,0-2.83,0-5.66,0-8.49.05-2.6,2.05-3.38,4-3.61,2.51-.28,2.95,1.79,3,3.66.14,2.66,0,5.33,0,8,.07,10.57.07,10.57,10.74,10.07h.5c1.31,0,3,.18,2.78-1.83C223.65,204.94,225.21,202.14,222.43,201.65Z"/><path class="cls-1" d="M100.34,180.37C94,178.48,87.61,178.72,82.75,184s-5.31,11.45-2.67,17.73c2.71,6.46,8.5,7.9,15.7,7.87a16,16,0,0,0,8.34-1.93c2-1.09,5.31-2.9,4.21-4.6-1.39-2.15-4.89-3.2-8-1.87a23.26,23.26,0,0,0-2.14,1.28c-3.18,1.78-5.75.69-8-1.76-.79-.86-1.58-1.88-1.17-3.12.5-1.5,1.94-1,3-1,4.83-.06,9.66,0,14.5,0,1.4,0,2.89.47,3-2C109.85,188.5,106.05,182.05,100.34,180.37Zm-6.2,11.37c-1.81-.67-4.76,1-4.92-1.87-.14-2.45,2.14-4.25,4.66-4.29,2.73-.05,5.3,1.82,5.23,4.36C99,193.38,95.65,190.66,94.14,191.74Z"/><path class="cls-1" d="M143.08,199.45c-3.33-1.89-5.71-2.15-8.44,1.11-2.32,2.77-5.34,2.28-7.81-.34-2.72-2.87-2.7-8.58,0-11.49,2.46-2.61,5.59-3.14,7.79-.33,2.47,3.14,5.67,4.2,8.62,2.85s.69-5.05,1.23-7.65c.59-2.83-1-3.51-3.43-3.12a22,22,0,0,1-9-.7c-8.93-2.2-16.75,4-17.31,13.15-.65,10.57,5.32,16.6,16.42,16.61,5.06.12,9.56-1.08,12.75-5.41C145.31,202.24,145.7,200.93,143.08,199.45Z"/><path class="cls-1" d="M239.5,180c-.82.06-1.64.06-2.46.09-8.39,4.57-11.36,11.68-8.5,20.37,2.13,6.46,8.74,10.07,17,9a37.45,37.45,0,0,0,6.17-1.82c6.24-6.11,8.06-13.27,5.13-20.1C254.33,181.67,248.93,179.31,239.5,180Zm7.65,19.2c-1.17,1.83-2.46,3.84-5,3.14s-3.86-2.93-4.22-5.56c-.43-3.16-.35-6.24,2-8.77,3.88-3.78,6-.65,7.6,2.29S249.39,196.29,247.15,199.15Z"/><path class="cls-1" d="M353.72,181c-5.81-.43-11.67,1.1-17.5-.89-2.68-.91-5.57.18-7.94,2-5.25,4.08-6.86,13.88-3.36,20.63,3.09,6,7.58,7.45,15.66,4.89,2.84-.9,3.36.08,2.86,2.53a6.61,6.61,0,0,1-3.41,4.66,7.4,7.4,0,0,1-7.62.12c-3.64-2.1-5,.72-5.92,3-1.39,3.58,2.26,2.91,3.89,3.4,2.18.67,4.58.61,6.88.86,11.4-.2,15.36-4.08,15.44-15.39,0-5.15,0-10.3,0-15.45,0-2-.24-4,2.68-4.44,2.54-.35,1.57-2.53,1.59-4C357,180.6,355.13,181.1,353.72,181Zm-15.93,21.81c-4.16-.78-5.24-4.3-5.57-7.9-.4-4.32,2.62-8.79,5.64-8.81,2.87,0,5.87,4.09,6,8.17S340.64,203.34,337.79,202.81Z"/><path class="cls-1" d="M394.7,182.79c0-1.94-1.61-1.77-2.93-1.78-2.83,0-5.66-.06-8.49,0-1.21,0-3-.51-3.14,1.44-.1,1.49-.85,3.14.92,4.52s.28,8.51-1.85,9.52c-.37.18-1.17.24-1.3,0-1.76-2.61-4-5.5-2.85-8.61,2.57-7,2.82-6.93-4.66-6.94h-7c-1.52,0-3.21-.14-3.15,2.11.05,1.51-.79,3.56,1.82,3.88,1.72.21,2.56,1.36,3.21,2.79,2.69,5.9,5.49,11.75,8.09,17.69,1.65,3.78.17,6.6-3.86,7.49-1.26.28-2.3.49-2.27,2,0,1.29-.47,2.76.79,3.72,2.37,1.8,9.47-.15,10.6-2.94,3.55-8.79,7-17.61,10.57-26.39.78-1.94,1.15-4.11,4-4.48C395.68,186.56,394.7,184.29,394.7,182.79Z"/><path class="cls-1" d="M296.85,180.41c-.64.13-1.28.3-1.92.46-6.81,3.67-9.49,10.32-7.43,18.45,1.59,6.24,6.44,9.65,13.73,9.86a21.45,21.45,0,0,0,9.63-1.84c6.3-6.3,7.9-13.94,4.34-20.65C312.2,181.05,305.36,178.7,296.85,180.41Zm9.37,18.88c-1.38,1.53-2.3,4-5,3.28s-3.83-2.87-4.45-5.43a10.12,10.12,0,0,1,2-9.26c3.73-2.54,6.41-1.72,8.16,2.6C308.18,193.5,308.44,196.52,306.22,199.29Z"/><path class="cls-1" d="M280.65,201.9c-3.39-.88-2.86-3.15-2.88-5.4,0-3.84,0-7.67,0-11.5v-7.5c0-10.41,0-10.42-10.39-9.84-1.37.07-3.4-.52-3.29,1.85.09,1.72-1.36,4.27,1.82,4.85,2.23.41,2.34,2,2.34,3.75q0,9.75,0,19.5c0,1.92-.05,3.56-2.54,4.11-3,.66-1.52,3.24-1.59,5-.08,2,1.72,1.62,3,1.64q5.75.07,11.5,0c1.23,0,3,.46,3.06-1.54C281.69,205.11,282.79,202.46,280.65,201.9Z"/><path class="cls-1" d="M70.6,180.45c-2.73.14-2.72-1.74-2.68-3.68,0-2.29,0-4.57,0-7-7.43,1.34-8.79,8.12-13.08,11.86-.89.77-1.48,4.91.78,5.63,3.18,1,2.5,3,2.56,5a68.18,68.18,0,0,1,0,8c-.77,8.34,3.33,10.67,12.7,8.8,2.68-.53,2.19-2.46,2.23-4.22s0-2.91-2.42-2.53S68,200.81,68,199c0-2.65,0-5.31,0-8-.07-2.09.29-3.66,2.88-3.51s2.33-1.72,2.32-3.38S73.55,180.29,70.6,180.45Z"/><path class="cls-1" d="M181.55,201.29c-1.54-.09-1.43-1.57-1.44-2.74,0-2.82,0-5.65,0-8.48-.14-9-3.81-12.1-12.62-10.07-2.94.68-4.09.61-4.15-2.92-.17-9.87-.33-9.9-10.42-9.57-1.43.05-3.82-.91-3.7,1.84.08,1.9-1.7,5,2.4,5.22,1.83.09,2,1.38,2,2.81,0,7.15,0,14.31,0,21.46,0,1.58-.49,2.52-2.21,2.62-3.76.22-2,3.13-2.22,4.92-.29,2.72,1.94,2.07,3.47,2.13,1.83.06,3.66,0,5.49,0a47.65,47.65,0,0,0,5.48-.05c1.39-.16,3.89,1.16,3.79-1.62-.07-1.86,2-5-2.1-5.42-1.48-.17-1.88-1.1-1.87-2.42,0-2.82.06-5.65,0-8.48s2-3.42,3.88-3.7c2.46-.37,2.95,1.67,3,3.61.09,2.82.05,5.65.05,8.48,0,9.68,0,9.74,9.51,9.54,1.51,0,4.18,1.33,4.3-1.63C184.24,204.83,186,201.53,181.55,201.29Z"/><path class="cls-1" d="M222.43,201.65c-3-.52-2.77-2.22-2.77-4.25,0-3,0-6-.17-9-.53-7.17-3.86-10.24-10.84-8.74-5.17,1.1-10.24.34-15.3.88-1.62.18-4.52-1.65-4.66,1.8-.09,2.07-1.58,5.34,2.8,5.37,1.19,0,1.51,1.1,1.51,2.19,0,3,0,6,0,9,0,1.3-.3,2.44-1.82,2.46-4.18.07-2.4,3.21-2.52,5.12-.2,3.2,2.47,1.93,4,2,3.49.17,7,.14,10.49,0,1.45-.05,3.83.91,3.74-1.82-.06-1.94,1.64-5-2.4-5.29-1.53-.1-1.81-1.18-1.8-2.47,0-2.83,0-5.66,0-8.49.05-2.6,2.05-3.38,4-3.61,2.51-.28,2.95,1.79,3,3.66.14,2.66,0,5.33,0,8,.07,10.57.07,10.57,10.74,10.07h.5c1.31,0,3,.18,2.78-1.83C223.65,204.94,225.21,202.14,222.43,201.65Z"/><path class="cls-1" d="M100.34,180.37C94,178.48,87.61,178.72,82.75,184s-5.31,11.45-2.67,17.73c2.71,6.46,8.5,7.9,15.7,7.87a16,16,0,0,0,8.34-1.93c2-1.09,5.31-2.9,4.21-4.6-1.39-2.15-4.89-3.2-8-1.87a23.26,23.26,0,0,0-2.14,1.28c-3.18,1.78-5.75.69-8-1.76-.79-.86-1.58-1.88-1.17-3.12.5-1.5,1.94-1,3-1,4.83-.06,9.66,0,14.5,0,1.4,0,2.89.47,3-2C109.85,188.5,106.05,182.05,100.34,180.37Zm-6.2,11.37c-1.81-.67-4.76,1-4.92-1.87-.14-2.45,2.14-4.25,4.66-4.29,2.73-.05,5.3,1.82,5.23,4.36C99,193.38,95.65,190.66,94.14,191.74Z"/><path class="cls-1" d="M143.08,199.45c-3.33-1.89-5.71-2.15-8.44,1.11-2.32,2.77-5.34,2.28-7.81-.34-2.72-2.87-2.7-8.58,0-11.49,2.46-2.61,5.59-3.14,7.79-.33,2.47,3.14,5.67,4.2,8.62,2.85s.69-5.05,1.23-7.65c.59-2.83-1-3.51-3.43-3.12a22,22,0,0,1-9-.7c-8.93-2.2-16.75,4-17.31,13.15-.65,10.57,5.32,16.6,16.42,16.61,5.06.12,9.56-1.08,12.75-5.41C145.31,202.24,145.7,200.93,143.08,199.45Z"/><path class="cls-1" d="M239.5,180c-.82.06-1.64.06-2.46.09-8.39,4.57-11.36,11.68-8.5,20.37,2.13,6.46,8.74,10.07,17,9a37.45,37.45,0,0,0,6.17-1.82c6.24-6.11,8.06-13.27,5.13-20.1C254.33,181.67,248.93,179.31,239.5,180Zm7.65,19.2c-1.17,1.83-2.46,3.84-5,3.14s-3.86-2.93-4.22-5.56c-.43-3.16-.35-6.24,2-8.77,3.88-3.78,6-.65,7.6,2.29S249.39,196.29,247.15,199.15Z"/><path class="cls-1" d="M353.72,181c-5.81-.43-11.67,1.1-17.5-.89-2.68-.91-5.57.18-7.94,2-5.25,4.08-6.86,13.88-3.36,20.63,3.09,6,7.58,7.45,15.66,4.89,2.84-.9,3.36.08,2.86,2.53a6.61,6.61,0,0,1-3.41,4.66,7.4,7.4,0,0,1-7.62.12c-3.64-2.1-5,.72-5.92,3-1.39,3.58,2.26,2.91,3.89,3.4,2.18.67,4.58.61,6.88.86,11.4-.2,15.36-4.08,15.44-15.39,0-5.15,0-10.3,0-15.45,0-2-.24-4,2.68-4.44,2.54-.35,1.57-2.53,1.59-4C357,180.6,355.13,181.1,353.72,181Zm-15.93,21.81c-4.16-.78-5.24-4.3-5.57-7.9-.4-4.32,2.62-8.79,5.64-8.81,2.87,0,5.87,4.09,6,8.17S340.64,203.34,337.79,202.81Z"/><path class="cls-1" d="M394.7,182.79c0-1.94-1.61-1.77-2.93-1.78-2.83,0-5.66-.06-8.49,0-1.21,0-3-.51-3.14,1.44-.1,1.49-.85,3.14.92,4.52s.28,8.51-1.85,9.52c-.37.18-1.17.24-1.3,0-1.76-2.61-4-5.5-2.85-8.61,2.57-7,2.82-6.93-4.66-6.94h-7c-1.52,0-3.21-.14-3.15,2.11.05,1.51-.79,3.56,1.82,3.88,1.72.21,2.56,1.36,3.21,2.79,2.69,5.9,5.49,11.75,8.09,17.69,1.65,3.78.17,6.6-3.86,7.49-1.26.28-2.3.49-2.27,2,0,1.29-.47,2.76.79,3.72,2.37,1.8,9.47-.15,10.6-2.94,3.55-8.79,7-17.61,10.57-26.39.78-1.94,1.15-4.11,4-4.48C395.68,186.56,394.7,184.29,394.7,182.79Z"/><path class="cls-1" d="M296.85,180.41c-.64.13-1.28.3-1.92.46-6.81,3.67-9.49,10.32-7.43,18.45,1.59,6.24,6.44,9.65,13.73,9.86a21.45,21.45,0,0,0,9.63-1.84c6.3-6.3,7.9-13.94,4.34-20.65C312.2,181.05,305.36,178.7,296.85,180.41Zm9.37,18.88c-1.38,1.53-2.3,4-5,3.28s-3.83-2.87-4.45-5.43a10.12,10.12,0,0,1,2-9.26c3.73-2.54,6.41-1.72,8.16,2.6C308.18,193.5,308.44,196.52,306.22,199.29Z"/><path class="cls-1" d="M280.65,201.9c-3.39-.88-2.86-3.15-2.88-5.4,0-3.84,0-7.67,0-11.5v-7.5c0-10.41,0-10.42-10.39-9.84-1.37.07-3.4-.52-3.29,1.85.09,1.72-1.36,4.27,1.82,4.85,2.23.41,2.34,2,2.34,3.75q0,9.75,0,19.5c0,1.92-.05,3.56-2.54,4.11-3,.66-1.52,3.24-1.59,5-.08,2,1.72,1.62,3,1.64q5.75.07,11.5,0c1.23,0,3,.46,3.06-1.54C281.69,205.11,282.79,202.46,280.65,201.9Z"/><path class="cls-1" d="M70.6,180.45c-2.73.14-2.72-1.74-2.68-3.68,0-2.29,0-4.57,0-7-7.43,1.34-8.79,8.12-13.08,11.86-.89.77-1.48,4.91.78,5.63,3.18,1,2.5,3,2.56,5a68.18,68.18,0,0,1,0,8c-.77,8.34,3.33,10.67,12.7,8.8,2.68-.53,2.19-2.46,2.23-4.22s0-2.91-2.42-2.53S68,200.81,68,199c0-2.65,0-5.31,0-8-.07-2.09.29-3.66,2.88-3.51s2.33-1.72,2.32-3.38S73.55,180.29,70.6,180.45Z"/><path class="cls-2" d="M344,41c-4.58-6.48-6.92-14.12-10.84-21C330,14.5,327.36,8.64,324.56,2.88A10.82,10.82,0,0,1,324,0h58c0,.33,0,.65,0,1,2.75,5.8,5.42,11.64,8.27,17.39,8.09,16.35,16.33,32.62,24.34,49,4.87,9.95,10.49,19.54,14.41,29.93l-1.73,2.7c-1.34-8-5.42-12.46-14.12-11-.54-1-1-2.08-1.64-3q-23.08-35.21-46.2-70.38c-2.74-4.18-3-4.14-5.66.11C354.37,24.06,350.46,33.32,344,41Z"/><path class="cls-2" d="M476.05,307c0,.33-.05.65-.05,1H450a7.93,7.93,0,0,0-.06-1Z"/><path class="cls-3" d="M532.05,307.22l-25.08,0L476.05,307H449.94a6.91,6.91,0,0,0-.91-.15c-1.59-1.36-3.5-.8-5.28-.8-19.46-.05-38.92-.12-58.39,0-3.87,0-4.64-.75-2.77-4.39,7.62-14.88,15-29.89,22.52-44.82,7.9-15.68,15.89-31.32,23.84-47,1.48-2.79,2.31-6.5,4.61-8.1s5.4,1.38,8.19,2.16c11.78,3.28,23.4,3,34.69-1.61,3.32-1.34,4.22-.22,5.5,2.38q19.47,39.35,39.12,78.59c3.63,7.27,7.39,14.47,11.1,21.7a1,1,0,0,0,.21.93Z"/><path class="cls-3" d="M477,.94l55.9.1C529.54,11,524,19.9,519.41,29.22c-12.06,24.21-24.44,48.26-36.5,72.47-1.82,3.64-3.3,4.82-7.46,3a44,44,0,0,0-18.92-3.52c-2,0-4,.51-5.87-.5-.11-2.7.77-5.2,1.61-7.7.43-1.25,1.07-2.54-.47-3.5-3.19-2-9.48.33-10.53,3.89-1.17,3.94-2.3,7.9-3.45,11.85-3.19,1-5-.18-6.15-3.32-.56-1.61-1-3.48-2.66-4.53-3.92-10.4-9.54-20-14.41-29.94-8-16.38-16.25-32.65-24.34-49C387.41,12.62,384.74,6.78,382,1Z"/><path class="cls-3" d="M348,160c16.72-.86,33.46-1.54,50.17-2.68,4.25-.29,6.22.4,6.95,5a50.64,50.64,0,0,0,19,32.25c2.72,2.18,3,4,.79,6.45-21,31.21-42.05,62.43-63.45,94.2L343.17,264c-2.94-4.15-4.46-9.2-8.12-12.9a7.24,7.24,0,0,0-1.43-4.13c-7.64-13.17-15.19-26.39-22.76-39.6,6.3-6.3,7.9-13.94,4.34-20.65-3-5.64-9.84-8-18.35-6.28-.64.13-1.28.3-1.92.46-.44-3.26-2.63-5.66-4.16-8.37-5.09-9-4.92-9.49,5.57-9.42,16.38.11,32.64-2,49-2.12A3.11,3.11,0,0,0,348,160Zm-10.76,62.24c11.4-.2,15.36-4.08,15.44-15.39,0-5.15,0-10.3,0-15.45,0-2-.24-4,2.68-4.44,2.54-.35,1.57-2.53,1.59-4,0-2.32-1.85-1.82-3.26-1.92-5.81-.43-11.67,1.1-17.5-.89-2.68-.91-5.57.18-7.94,2-5.25,4.08-6.86,13.88-3.36,20.63,3.09,6,7.58,7.45,15.66,4.89,2.84-.9,3.36.08,2.86,2.53a6.61,6.61,0,0,1-3.41,4.66,7.4,7.4,0,0,1-7.62.12c-3.64-2.1-5,.72-5.92,3-1.39,3.58,2.26,2.91,3.89,3.4C332.56,222,335,222,337.26,222.21ZM368.9,181h-5.49c-1.52,0-3.21-.14-3.15,2.11.05,1.51-.79,3.56,1.82,3.88,1.72.21,2.56,1.36,3.21,2.79,2.69,5.9,5.49,11.75,8.09,17.69,1.65,3.78.17,6.6-3.86,7.49-1.26.28-2.3.49-2.27,2,0,1.29-.47,2.76.79,3.72,2.37,1.8,9.47-.15,10.6-2.94,3.55-8.79,7-17.61,10.57-26.39.78-1.94,1.15-4.11,4-4.48,2.46-.32,1.48-2.59,1.48-4.09,0-1.94-1.61-1.77-2.93-1.78-2.83,0-5.66-.06-8.49,0-1.21,0-3-.51-3.14,1.44-.1,1.49-.85,3.14.92,4.52s.28,8.51-1.85,9.52c-.37.18-1.17.24-1.3,0-1.76-2.61-4-5.5-2.85-8.61,2.57-7,2.82-6.93-4.66-6.94Z"/><path class="cls-4" d="M530.92,150.93c6.5,0,13,0,19.49,0,1.39,0,3.15.49,3.5-1.76.3-1.93.05-3.33-1.89-4.6-9.36-6.15-9.33-6.24-4.18-16.29a43,43,0,0,1,2.52-4.29c5.9-8.88,5.91-8.88,15.27-4a8.42,8.42,0,0,0,.85.52c3.38,1.4,15.33-6.42,15.49-10.13.4-9.64.42-9.54,9.89-11,5-.78,9.94.36,14.9.76,2.62.22,3.45,2,3.48,4.57,0,3-1.37,6.81.7,8.65,3.52,3.14,8,5.25,12.28,7.47,1.82.94,3.43-.8,5-1.7,7.1-4.19,7.07-4.2,12.23,2.5a48.57,48.57,0,0,1,7.12,13.1c1.11,3.06.8,5.26-2.38,7.07-2.39,1.35-6.16,2-6.64,4.84a48.09,48.09,0,0,0-.15,13.92c.35,2.68,3.78,3.64,6.06,4.72,4.25,2,4.26,4.79,2.77,8.56a64.54,64.54,0,0,1-8.58,14.54c-2.29,3.12-4.93,3.82-7.57,1.56-5-4.28-9.36-3.39-13.87.52a7.52,7.52,0,0,1-2.65,1.37c-3.33,1-4.49,3.08-4.39,6.68.24,8.84-.17,9.22-9,9.54-4.65.17-9.32-.09-14-.35-3.57-.2-5.66-2.15-5-5.88,1.1-6.14-2.11-8.65-7-11.74-5.4-3.38-9.31-3.53-14.1,0-2.59,1.94-4.87,1.07-6.91-1.37a62.78,62.78,0,0,1-9.79-17.26c-.89-2.21-.25-3.88,1.77-5.09,1.86-1.1,3.65-2.35,5.58-3.31S554.4,161,554,158.8c-.5-2.5-2.4-1.9-3.93-1.9-11.33,0-22.65,0-34,0-1,0-2,0-3,0-2.45-.13-5.77.33-5.85-3.06-.08-3.85,3.48-2.7,5.74-2.75,6-.12,12,0,18,0Zm83,2.74A17.93,17.93,0,0,0,596.12,136c-9.53,0-17.72,8.29-17.71,17.92s8.3,17.67,18,17.71C605.9,171.69,614,163.43,613.94,153.67Z"/><path class="cls-5" d="M344,41c6.42-7.7,10.33-17,15.62-25.36,2.68-4.25,2.92-4.29,5.66-.11q23.08,35.21,46.2,70.38c.63.95,1.1,2,1.64,3-4.52-.13-4.69,2-3.38,5.65,3.2,8.77,6.12,17.65,9.15,26.48-2.2-1.84-3.05-.09-4.19,1.45a49.57,49.57,0,0,0-9.58,23.14c-.45,3.47-1.8,4.44-5.08,4.2-15-1.1-30-2.06-45.05-3.07a8.93,8.93,0,0,0-2.3-.78c-8-.39-16-.29-23.85-1.2-6-.69-12.21.15-18.07-1.9,7.87-4.26,14.12-9.92,16.41-19,.59-2.33,2-5.28-.51-6.81-3.55-2.14-7.82-1-11.77-.89-3,.1-2.31,3.24-3,5.06-3.4,8.61-10.11,11-17.14,6,5.55-9.6,10.61-19.51,17.23-28.48,4.14-.27,8.29-.81,12.42-.72,3.1.07,3.83-1.22,3.47-3.86a39.29,39.29,0,0,0-6.11-16.17,2.38,2.38,0,0,0,2.1-1c4-7.29,8.83-14.15,12.21-21.81C339.09,50.67,342.37,46.3,344,41ZM390.82,81.4c-.58-2.26,1.56-6.29-1.78-7.25a18.81,18.81,0,0,0-10.7.56c-2.94,1-1.39,4.52-1.53,7.1-.15,3,1.43,7.74-4.51,7.35-3.37-.23-5.8.6-5.14,4.57.58,3.49-2.65,9.23,4.76,9,2.7-.07,3.4,1,3.35,3.51-.14,6.16-.22,12.33,0,18.48.13,3.4-.59,6.89.85,10.21,3.8,8.78,11.43,11.3,22.54,8.28,5.74-1.56,2.56-5.56,3.11-8.43.63-3.35-2.2-3-4.34-3-4.57-.09-7-1.86-6.7-7a125.87,125.87,0,0,0,0-16.48c-.29-4.37,1-6.25,5.52-5.55,3.42.53,5-1,4.64-4.51a40.38,40.38,0,0,1,0-5.5c.09-2.48-.95-3.5-3.52-3.66C390.81,88.71,390.82,88.6,390.82,81.4Zm-33.87,34v-17c0-9.38,0-9.21-9.58-9.35-4.53-.06-6.24,1.56-6.17,6.12.2,11.81,0,23.63.09,35.44.08,12.9-1.84,11.12,11.41,11.42,3.23.07,4.42-.84,4.32-4.2C356.81,130.42,357,122.93,357,115.44Zm.85-38.21c0-8,0-8-7.78-8-8.77,0-8.77,0-8.77,7.34,0,8.42.05,8.48,7.64,8.48C357.79,85,357.79,85,357.8,77.23Z"/><path class="cls-2" d="M310.86,207.34c7.57,13.21,15.12,26.43,22.76,39.6a7.24,7.24,0,0,1,1.43,4.13c-6.35,11.4-14.21,21.81-21.35,32.7-2.17,3.31-4.49,6.53-6.54,9.92-1.75,2.91-3.09,3.11-4.85,0-7.45-13.07-15-26.08-22.47-39.13-8.22-14.36-16.74-28.55-24.36-43.25-.81-1.56-1.63-3.37-3.77-3.7,6.24-6.11,8.06-13.27,5.13-20.1-2.51-5.85-7.91-8.21-17.34-7.57-.82.06-1.64.06-2.46.09-2.26-3.86-4.61-7.67-6.76-11.59-1.43-2.62-2.89-5.19,2.29-5.66,2.61-.24,5.21-.87,7.87-.77,16.78.59,33.43-1.75,50.18-2.24,11.55-.34,23.11-1.37,34.69-2,6.28-.32,12.56-.74,18.85-.83,2.14,0,4.16-.08,3.86,3a3.11,3.11,0,0,1-2.68,1c-16.36.09-32.62,2.23-49,2.12-10.49-.07-10.66.42-5.57,9.42,1.53,2.71,3.72,5.11,4.16,8.37-6.81,3.67-9.49,10.32-7.43,18.45,1.59,6.24,6.44,9.65,13.73,9.86A21.45,21.45,0,0,0,310.86,207.34ZM277.76,185v-7.5c0-10.41,0-10.42-10.39-9.84-1.37.07-3.4-.52-3.29,1.85.09,1.72-1.36,4.27,1.82,4.85,2.23.41,2.34,2,2.34,3.75q0,9.75,0,19.5c0,1.92-.05,3.56-2.54,4.11-3,.66-1.52,3.24-1.59,5-.08,2,1.72,1.62,3,1.64q5.75.07,11.5,0c1.23,0,3,.46,3.06-1.54,0-1.69,1.14-4.34-1-4.9-3.39-.88-2.86-3.15-2.88-5.4C277.74,192.66,277.76,188.83,277.76,185Z"/><path class="cls-2" d="M336.09,55.2c-3.38,7.66-8.17,14.52-12.21,21.81a2.38,2.38,0,0,1-2.1,1c-12.1-13.9-37.11-11.56-46,6.67-7.22,14.79-7.42,29.69.19,44.3q5.7,10.93,18.17,14.27c5.79,1.54,11.13.22,16.66-.37,5.86,2,12.05,1.21,18.07,1.9,7.89.91,15.9.81,23.85,1.2a8.93,8.93,0,0,1,2.3.78c-6.5.1-12,4.31-19,3.36-17.52-2.39-35.3-1.91-52.88-4.07-5.4-.66-10.91-.64-16.34-.91-11.91-.57-23.79-1.51-35.68-2.13-3.48-.18-3.05-1.56-1.78-3.61,13.26-21.34,25.17-43.47,38.27-64.91,12.05-19.72,23.14-40,34.65-60.07,2.66-4.62,3.59-4.67,6.65-.09Q322.52,34.77,336.09,55.2Z"/><path class="cls-3" d="M443,122.94c4.93-.44,9.6-2.2,14.71-2.09,16.83.35,31.39,13.91,32.32,30.59,1,17.56-11.18,32.49-28.27,34.74-18.06,2.38-34.13-9.06-36.92-26.26,5.8-2.73,8.91-7.74,10.85-13.48C438.34,138.67,440.61,130.78,443,122.94Z"/><path class="cls-2" d="M343.17,264l18.29,31.19c21.4-31.77,42.42-63,63.45-94.2a16.42,16.42,0,0,0,4,8.93c-7.95,15.65-15.94,31.29-23.84,47-7.53,14.93-14.9,29.94-22.52,44.82-1.87,3.64-1.1,4.41,2.77,4.39,19.47-.12,38.93-.05,58.39,0,1.78,0,3.69-.56,5.28.8q-42.72.06-85.43.12H328.13c-5.87,0-5.95-.39-3.24-5.78C331.11,288.85,338,276.85,343.17,264Z"/><path class="cls-6" d="M582.53,79.21c-10.84,0-21.67.07-32.5,0a8.65,8.65,0,0,0-6.15,2.43c-14.26,12-28.7,23.77-43.12,35.58-1.49,1.22-3.27,3-5.14.76s-.14-4,1.59-5.41C510.45,101.67,523.67,90.78,537,80c2.28-1.84,2.8-3.37,2.59-6.58-.7-10.78-.59-21.63-.36-32.45.08-3.89,2.75-1.72,4.14-.77,7.28,5,14.47,10.11,21.68,15.19,2.32,1.63,4.66,3.22,6.94,4.89,6.79,5,13.45,4.84,20.26-.1q12.12-8.8,24.5-17.25c2.24-1.54,4.61-4.8,7.12-3.59,2.33,1.12.89,4.86.94,7.43.15,7.83.1,15.66,0,23.5,0,6.08-2.74,8.87-8.82,8.91C604.86,79.26,593.69,79.21,582.53,79.21Z"/><path class="cls-6" d="M581.91,286.17c-29.46-.08-54.27-25.5-53.75-55.45.08-4.66-1.27-7.54-4.9-10.45-8.56-6.84-16.67-14.26-24.95-21.45-.88-.76-1.66-1.65-2.55-2.39-1.68-1.42-2.91-3.22-1.45-5.16,1.77-2.34,3.64-.48,5.1.74,5,4.15,9.85,8.43,14.77,12.64,4.42,3.79,8.94,7.46,13.24,11.38,1.85,1.7,3.1,2,4.88,0,2.22-2.5,5.39-3.26,8.53-3.68,5.64-.74,9.08,1.4,10.84,6.75,1.65,5,2.81,10.27,4.67,15.24,1.77,4.74.45,7.89-4.07,9.53-3.41,1.23-3.23,2.83-1.62,5.49a47.52,47.52,0,0,0,12.13,13.07c2.06,1.58,3.22,1.8,4.44-.91,2.19-4.82,5.84-5.75,10.68-3.73,4,1.66,8.17,2.77,12.22,4.27,8.83,3.25,11,13.08,4.47,20.15C591.13,286,590.41,286.19,581.91,286.17Z"/><path class="cls-6" d="M582,18.12c11,0,22-.06,33,0,4.19,0,8.1.95,9.45,5.7,1,3.38.86,6.57-2.44,8.9-11.55,8.14-23,16.35-34.6,24.46a8.62,8.62,0,0,1-10.7-.06c-11.16-7.83-22.31-15.68-33.51-23.45-3.37-2.34-5-5.28-3.81-9.36,1.27-4.26,4.51-6.09,8.69-6.16,7.82-.14,15.65-.05,23.47-.06Z"/><path class="cls-3" d="M449.81,101.91l.75-1.18C450.91,101.5,450.39,101.72,449.81,101.91Z"/><path class="cls-7" d="M532.37,305.94a1,1,0,0,1-.21-.93,4.56,4.56,0,0,1,.41.6C532.6,305.68,532.44,305.83,532.37,305.94Z"/><path class="cls-7" d="M437.82,105.16l-4.22,14.5A87.09,87.09,0,0,1,427.28,100L429,97.3c1.65,1.06,2.1,2.93,2.66,4.54C432.78,105,434.63,106.16,437.82,105.16Z"/><path class="cls-8" d="M613.94,153.67c0,9.76-8,18-17.55,18-9.68,0-18-8.2-18-17.71S586.59,136,596.12,136A17.93,17.93,0,0,1,613.94,153.67Z"/><path class="cls-2" d="M294.77,127.29c-5.25-2.5-5.45-7.72-5.67-12.23-.34-7-.88-14.17.76-21.22,1.55-6.64,5.78-10.45,11.95-10.09,5.72.34,8.68,3.93,9.37,11.22a33,33,0,0,0,.82,3.85C305.38,107.78,300.32,117.69,294.77,127.29Z"/><path class="cls-9" d="M1,71c4,.07,8,.47,11.9.12,3.72-.33,5.13,1.43,5.76,4.56,2.45,12,4.87,24,7.35,36a39,39,0,0,0,1.47,4.23c2.82-3.92,2.63-8.35,3.67-12.3,2.34-9,4.2-18.09,6.07-27.18.78-3.78,2.3-5.53,6.6-5.37,9.38.36,9.46.08,11.72,9.29,2.86,11.72,5.59,23.46,8.66,36.36C67.32,110.39,67.5,104.52,69,99c1.89-7,3.28-14.22,4.46-21.41.81-5,2.87-6.94,8.16-6.54,6.94.53,6.72.07,5,7q-6.81,27.5-13.21,55.11c-2,8.8-7,11.78-15.87,9.19-2.09-.6-2.2-2.25-2.58-3.83Q51,122.09,47.05,105.65a20.5,20.5,0,0,0-2.93-7.18Q40.53,114,37,129.42c-.23,1-.32,2-.57,2.93-2.84,10.85-3.8,11.41-15.15,10.09-2.82-.32-3.26-2-3.81-4.31-4.94-20.63-10-41.22-15-61.83-.22-.9,0-2.08-1.39-2.3Z"/><path class="cls-9" d="M213.79,119.08c-4.17,0-8.33,0-12.5,0-1.25,0-2.66-.42-3.4,1.28-1.47,3.4,1.07,9.45,5,11.57,4.2,2.3,9.49,1.41,11.18-2.85,1.89-4.79,4.93-4.4,8.71-3.74,7.17,1.24,7.23,1.29,3.61,7.62A23.07,23.07,0,0,1,203,144.07a24.14,24.14,0,0,1-19.89-18c-2-9-1.91-17.92,2.84-26.2,5.17-9,13.77-13,24.53-11.46,8.16,1.15,16,9.27,18,18.64,2.58,12,2.58,12-9.67,12Zm-7.73-9h6.48c1.3,0,2.47-.38,2.15-2-.74-3.63-1.61-7.47-5.8-8.52-3.58-.9-7-.12-9.1,3.41-1.07,1.84-2.46,4.08-1.6,6,.94,2.15,3.54.71,5.38,1A14.77,14.77,0,0,0,206.06,110.06Z"/><path class="cls-10" d="M149.29,88.27c8.05-.73,14.48,2.67,18.52,10.54,1,1.9,1,3-1.38,3.61-3.88.93-7.4,3.65-11.25-1.22-2.57-3.25-7.45-2.12-11.36-1.29a3.83,3.83,0,0,0-2.7,3.84c0,1.89,1.51,2.75,3.17,3.39,4.14,1.58,8.57,1,12.82,1.52,7.3.84,12.89,6.37,14,14a18.33,18.33,0,0,1-10.37,18.83c-8.69,4-17.41,3.49-26-.59a12,12,0,0,1-3.58-2.66c-2.43-2.67-6.22-5.85-4.3-9.23,1.75-3.1,6.78-1.39,10.3-2.24,1.55-.38,1.88,1.62,2.73,2.56,3.59,4,10.59,5.08,15.07,2.23,2-1.28,3.15-3.05,2.44-5.45-.64-2.17-2.28-3-4.56-3.1-3.8-.24-7.6-.73-11.38-1.31-6.94-1.08-12.09-5.55-13.2-11.25-1.59-8.19,1.19-15.33,7.49-19.17C139.7,88.93,142.42,88.28,149.29,88.27Z"/><path class="cls-11" d="M443,122.94c-2.42,7.84-4.69,15.73-7.31,23.5-1.94,5.74-5.05,10.75-10.85,13.48-1.49.05-3,.08-4.46.14-9.49.42-10.18-.35-9.68-9.66.14-2.64,1-3.7,3.61-3.06a14.19,14.19,0,0,0,5.91.26c4.62-.81,6.42-3.78,4.92-8.25-2.05-6.1-4.15-12.17-6.24-18.26-3-8.83-5.95-17.71-9.15-26.48-1.31-3.62-1.14-5.78,3.38-5.65,8.7-1.42,12.78,3.05,14.12,11a87.09,87.09,0,0,0,6.32,19.66l4.22-14.5c1.15-4,2.28-7.91,3.45-11.85,1.05-3.56,7.34-5.88,10.53-3.89,1.54,1,.9,2.25.47,3.5-.84,2.5-1.72,5-1.61,7.7l-.1.11-.75,1.18Z"/><path class="cls-9" d="M115.14,116.39c0,7.31-.12,14.62.06,21.93.08,3-.83,4.08-3.91,4.2-11.24.43-11.23.53-11.23-10.79,0-12.47.09-24.93-.07-37.39,0-3.47,1.11-4.71,4.59-4.65,12,.2,10.52-1.06,10.56,10.24C115.16,105.42,115.14,110.9,115.14,116.39Z"/><path class="cls-10" d="M100,76.91c0-1.32.1-2.65,0-4-.25-2.73.78-3.72,3.64-3.83,11.72-.46,13.46,1.44,11.63,13.3-.19,1.22-.4,2.59-1.74,2.64-4,.15-7.91.13-11.86,0-1.42-.06-1.64-1.42-1.63-2.65C100.05,80.55,100.05,78.73,100,76.91Z"/><path class="cls-12" d="M310.81,142.93c-5.53.59-10.87,1.91-16.66.37Q281.65,140,276,129c-7.61-14.61-7.41-29.51-.19-44.3,8.88-18.23,33.89-20.57,46-6.67a39.29,39.29,0,0,1,6.11,16.17c.36,2.64-.37,3.93-3.47,3.86-4.13-.09-8.28.45-12.42.73a33,33,0,0,1-.82-3.85c-.69-7.29-3.65-10.88-9.37-11.22-6.17-.36-10.4,3.45-11.95,10.09-1.64,7-1.1,14.17-.76,21.22.22,4.51.42,9.73,5.67,12.23,7,5,13.74,2.63,17.14-6,.72-1.82,0-5,3-5.06,3.95-.14,8.22-1.25,11.77.89,2.55,1.53,1.1,4.48.51,6.81C324.93,133,318.68,138.67,310.81,142.93Z"/><path class="cls-13" d="M390.82,81.4c0,7.2,0,7.31,6.53,7.73,2.57.16,3.61,1.18,3.52,3.66a40.38,40.38,0,0,0,0,5.5c.33,3.52-1.22,5-4.64,4.51-4.5-.7-5.81,1.18-5.52,5.55a125.87,125.87,0,0,1,0,16.48c-.34,5.12,2.13,6.89,6.7,7,2.14,0,5-.34,4.34,3-.55,2.87,2.63,6.87-3.11,8.43-11.11,3-18.74.5-22.54-8.28-1.44-3.32-.72-6.81-.85-10.21-.24-6.15-.16-12.32,0-18.48.05-2.51-.65-3.58-3.35-3.51-7.41.19-4.18-5.55-4.76-9-.66-4,1.77-4.8,5.14-4.57,5.94.39,4.36-4.35,4.51-7.35.14-2.58-1.41-6.08,1.53-7.1a18.81,18.81,0,0,1,10.7-.56C392.38,75.11,390.24,79.14,390.82,81.4Z"/><path class="cls-12" d="M357,115.44c0,7.49-.15,15,.06,22.46.1,3.36-1.09,4.27-4.32,4.2-13.25-.3-11.33,1.48-11.41-11.42-.08-11.81.11-23.63-.09-35.44-.07-4.56,1.64-6.18,6.17-6.12,9.58.14,9.59,0,9.58,9.35Q357,107,357,115.44Z"/><path class="cls-13" d="M357.8,77.23c0,7.78,0,7.78-8.91,7.78-7.59,0-7.65-.06-7.64-8.48,0-7.34,0-7.34,8.77-7.34C357.8,69.2,357.8,69.2,357.8,77.23Z"/><path class="cls-7" d="M206.06,110.06a14.77,14.77,0,0,1-2.49,0c-1.84-.31-4.44,1.13-5.38-1-.86-2,.53-4.19,1.6-6,2.06-3.53,5.52-4.31,9.1-3.41,4.19,1,5.06,4.89,5.8,8.52.32,1.58-.85,2-2.15,2Z"/><path class="cls-7" d="M94.14,191.74c-1.81-.67-4.76,1-4.92-1.87-.14-2.45,2.14-4.25,4.66-4.29,2.73-.05,5.3,1.82,5.23,4.36C99,193.38,95.65,190.66,94.14,191.74Z"/><path class="cls-7" d="M247.15,199.15c-1.17,1.83-2.46,3.84-5,3.14s-3.86-2.93-4.22-5.56c-.43-3.16-.35-6.24,2-8.77A15.32,15.32,0,0,1,247.15,199.15Z"/><path class="cls-2" d="M247.15,199.15A15.32,15.32,0,0,0,240,188c3.88-3.78,6-.65,7.6,2.29S249.39,196.29,247.15,199.15Z"/><path class="cls-5" d="M343.83,194.27c.11,4.12-3.19,9.07-6,8.54-4.16-.78-5.24-4.3-5.57-7.9-.4-4.32,2.62-8.79,5.64-8.81C340.73,186.09,343.73,190.19,343.83,194.27Z"/><path class="cls-2" d="M306.22,199.29c-1.38,1.53-2.3,4-5,3.28s-3.83-2.87-4.45-5.43a10.12,10.12,0,0,1,2-9.26C302.24,191.05,303.34,195.75,306.22,199.29Z"/><path class="cls-5" d="M306.22,199.29c-2.88-3.54-4-8.24-7.42-11.41,3.73-2.54,6.41-1.72,8.16,2.6C308.18,193.5,308.44,196.52,306.22,199.29Z"/><path class="cls-10" d="M181.55,201.29c-1.54-.09-1.43-1.57-1.44-2.74,0-2.82,0-5.65,0-8.48-.14-9-3.81-12.1-12.62-10.07-2.94.68-4.09.61-4.15-2.92-.17-9.87-.33-9.9-10.42-9.57-1.43.05-3.82-.91-3.7,1.84.08,1.9-1.7,5,2.4,5.22,1.83.09,2,1.38,2,2.81,0,7.15,0,14.31,0,21.46,0,1.58-.49,2.52-2.21,2.62-3.76.22-2,3.13-2.22,4.92-.29,2.72,1.94,2.07,3.47,2.13,1.83.06,3.66,0,5.49,0a47.65,47.65,0,0,0,5.48-.05c1.39-.16,3.89,1.16,3.79-1.62-.07-1.86,2-5-2.1-5.42-1.48-.17-1.88-1.1-1.87-2.42,0-2.82.06-5.65,0-8.48s2-3.42,3.88-3.7c2.46-.37,2.95,1.67,3,3.61.09,2.82.05,5.65.05,8.48,0,9.68,0,9.74,9.51,9.54,1.51,0,4.18,1.33,4.3-1.63C184.24,204.83,186,201.53,181.55,201.29Z"/><path class="cls-10" d="M222.43,201.65c-3-.52-2.77-2.22-2.77-4.25,0-3,0-6-.17-9-.53-7.17-3.86-10.24-10.84-8.74-5.17,1.1-10.24.34-15.3.88-1.62.18-4.52-1.65-4.66,1.8-.09,2.07-1.58,5.34,2.8,5.37,1.19,0,1.51,1.1,1.51,2.19,0,3,0,6,0,9,0,1.3-.3,2.44-1.82,2.46-4.18.07-2.4,3.21-2.52,5.12-.2,3.2,2.47,1.93,4,2,3.49.17,7,.14,10.49,0,1.45-.05,3.83.91,3.74-1.82-.06-1.94,1.64-5-2.4-5.29-1.53-.1-1.81-1.18-1.8-2.47,0-2.83,0-5.66,0-8.49.05-2.6,2.05-3.38,4-3.61,2.51-.28,2.95,1.79,3,3.66.14,2.66,0,5.33,0,8,.07,10.57.07,10.57,10.74,10.07h.5c1.31,0,3,.18,2.78-1.83C223.65,204.94,225.21,202.14,222.43,201.65Z"/><path class="cls-10" d="M100.34,180.37C94,178.48,87.61,178.72,82.75,184s-5.31,11.45-2.67,17.73c2.71,6.46,8.5,7.9,15.7,7.87a16,16,0,0,0,8.34-1.93c2-1.09,5.31-2.9,4.21-4.6-1.39-2.15-4.89-3.2-8-1.87a23.26,23.26,0,0,0-2.14,1.28c-3.18,1.78-5.75.69-8-1.76-.79-.86-1.58-1.88-1.17-3.12.5-1.5,1.94-1,3-1,4.83-.06,9.66,0,14.5,0,1.4,0,2.89.47,3-2C109.85,188.5,106.05,182.05,100.34,180.37Zm-6.2,11.37c-1.81-.67-4.76,1-4.92-1.87-.14-2.45,2.14-4.25,4.66-4.29,2.73-.05,5.3,1.82,5.23,4.36C99,193.38,95.65,190.66,94.14,191.74Z"/><path class="cls-10" d="M143.08,199.45c-3.33-1.89-5.71-2.15-8.44,1.11-2.32,2.77-5.34,2.28-7.81-.34-2.72-2.87-2.7-8.58,0-11.49,2.46-2.61,5.59-3.14,7.79-.33,2.47,3.14,5.67,4.2,8.62,2.85s.69-5.05,1.23-7.65c.59-2.83-1-3.51-3.43-3.12a22,22,0,0,1-9-.7c-8.93-2.2-16.75,4-17.31,13.15-.65,10.57,5.32,16.6,16.42,16.61,5.06.12,9.56-1.08,12.75-5.41C145.31,202.24,145.7,200.93,143.08,199.45Z"/><path class="cls-10" d="M239.5,180c-.82.06-1.64.06-2.46.09-8.39,4.57-11.36,11.68-8.5,20.37,2.13,6.46,8.74,10.07,17,9a37.45,37.45,0,0,0,6.17-1.82c6.24-6.11,8.06-13.27,5.13-20.1C254.33,181.67,248.93,179.31,239.5,180Zm7.65,19.2c-1.17,1.83-2.46,3.84-5,3.14s-3.86-2.93-4.22-5.56c-.43-3.16-.35-6.24,2-8.77,3.88-3.78,6-.65,7.6,2.29S249.39,196.29,247.15,199.15Z"/><path class="cls-10" d="M353.72,181c-5.81-.43-11.67,1.1-17.5-.89-2.68-.91-5.57.18-7.94,2-5.25,4.08-6.86,13.88-3.36,20.63,3.09,6,7.58,7.45,15.66,4.89,2.84-.9,3.36.08,2.86,2.53a6.61,6.61,0,0,1-3.41,4.66,7.4,7.4,0,0,1-7.62.12c-3.64-2.1-5,.72-5.92,3-1.39,3.58,2.26,2.91,3.89,3.4,2.18.67,4.58.61,6.88.86,11.4-.2,15.36-4.08,15.44-15.39,0-5.15,0-10.3,0-15.45,0-2-.24-4,2.68-4.44,2.54-.35,1.57-2.53,1.59-4C357,180.6,355.13,181.1,353.72,181Zm-15.93,21.81c-4.16-.78-5.24-4.3-5.57-7.9-.4-4.32,2.62-8.79,5.64-8.81,2.87,0,5.87,4.09,6,8.17S340.64,203.34,337.79,202.81Z"/><path class="cls-10" d="M394.7,182.79c0-1.94-1.61-1.77-2.93-1.78-2.83,0-5.66-.06-8.49,0-1.21,0-3-.51-3.14,1.44-.1,1.49-.85,3.14.92,4.52s.28,8.51-1.85,9.52c-.37.18-1.17.24-1.3,0-1.76-2.61-4-5.5-2.85-8.61,2.57-7,2.82-6.93-4.66-6.94h-7c-1.52,0-3.21-.14-3.15,2.11.05,1.51-.79,3.56,1.82,3.88,1.72.21,2.56,1.36,3.21,2.79,2.69,5.9,5.49,11.75,8.09,17.69,1.65,3.78.17,6.6-3.86,7.49-1.26.28-2.3.49-2.27,2,0,1.29-.47,2.76.79,3.72,2.37,1.8,9.47-.15,10.6-2.94,3.55-8.79,7-17.61,10.57-26.39.78-1.94,1.15-4.11,4-4.48C395.68,186.56,394.7,184.29,394.7,182.79Z"/><path class="cls-10" d="M296.85,180.41c-.64.13-1.28.3-1.92.46-6.81,3.67-9.49,10.32-7.43,18.45,1.59,6.24,6.44,9.65,13.73,9.86a21.45,21.45,0,0,0,9.63-1.84c6.3-6.3,7.9-13.94,4.34-20.65C312.2,181.05,305.36,178.7,296.85,180.41Zm9.37,18.88c-1.38,1.53-2.3,4-5,3.28s-3.83-2.87-4.45-5.43a10.12,10.12,0,0,1,2-9.26c3.73-2.54,6.41-1.72,8.16,2.6C308.18,193.5,308.44,196.52,306.22,199.29Z"/><path class="cls-10" d="M280.65,201.9c-3.39-.88-2.86-3.15-2.88-5.4,0-3.84,0-7.67,0-11.5v-7.5c0-10.41,0-10.42-10.39-9.84-1.37.07-3.4-.52-3.29,1.85.09,1.72-1.36,4.27,1.82,4.85,2.23.41,2.34,2,2.34,3.75q0,9.75,0,19.5c0,1.92-.05,3.56-2.54,4.11-3,.66-1.52,3.24-1.59,5-.08,2,1.72,1.62,3,1.64q5.75.07,11.5,0c1.23,0,3,.46,3.06-1.54C281.69,205.11,282.79,202.46,280.65,201.9Z"/><path class="cls-10" d="M70.6,180.45c-2.73.14-2.72-1.74-2.68-3.68,0-2.29,0-4.57,0-7-7.43,1.34-8.79,8.12-13.08,11.86-.89.77-1.48,4.91.78,5.63,3.18,1,2.5,3,2.56,5a68.18,68.18,0,0,1,0,8c-.77,8.34,3.33,10.67,12.7,8.8,2.68-.53,2.19-2.46,2.23-4.22s0-2.91-2.42-2.53S68,200.81,68,199c0-2.65,0-5.31,0-8-.07-2.09.29-3.66,2.88-3.51s2.33-1.72,2.32-3.38S73.55,180.29,70.6,180.45Z"/></g></g></svg>